<svg xmlns="http://www.w3.org/2000/svg" viewBox="0 0 24 24"><path d="M23.9 10.3C23.9 5 18.6.7 12 .7 5.5.7.1 5 .1 10.3c0 4.8 4.2 8.7 9.9 9.5.4.1.9.2 1 .6.1.3.1.7.1 1 0 0-.1.8-.2 1-.1.3-.2 1.2 1 .6 1.3-.5 6.8-4 9.3-6.9 1.8-1.7 2.7-3.7 2.7-5.8zM8 12.9c0 .1-.1.2-.2.2H4.7c-.1 0-.1 0-.2-.1 0 0-.1-.1-.1-.2V8c0-.1.1-.2.2-.2h.8c.1 0 .2.1.2.2v4h2.1c.2 0 .3 0 .3.2v.7zm1.9 0c0 .1-.1.2-.2.2h-.8c-.1 0-.2-.1-.2-.2V8c0-.1.1-.2.2-.2h.8c.1 0 .2.1.2.2v4.9zm5.4 0c0 .1-.1.2-.2.2h-.9l-.1-.1-2.3-3v2.9c0 .1-.1.2-.2.2h-.8c-.1 0-.2-.1-.2-.2V8c0-.1.1-.2.2-.2h.8l2.3 3.1V8c0-.1.1-.2.2-.2h.8c.1 0 .2.1.2.2v4.9zm4.4-4.1c0 .1-.1.2-.2.2h-2.1v.9h2.1c.1 0 .2.1.2.2v.8c0 .1-.1.2-.2.2h-2.1v.9h2.1c.1 0 .2.1.2.2v.8c0 .1-.1.2-.2.2h-3.1c-.1 0-.1 0-.2-.1 0 0-.1-.1-.1-.2V8c0-.1 0-.1.1-.2 0 0 .1-.1.2-.1h3.1c.1 0 .2.1.2.2v.9z" fill="#fff"/></svg>